<svg width="16" height="16" viewBox="0 0 16 16" fill="none" xmlns="http://www.w3.org/2000/svg">
<g clip-path="url(#clip0_2_780)">
<path d="M7.67833 1.52715C7.73806 1.4064 7.86106 1.32999 7.99571 1.32999C8.13036 1.32999 8.25337 1.4064 8.3131 1.52715L9.85657 4.65553C10.063 5.0735 10.4613 5.3634 10.9223 5.4311L14.3741 5.93656C14.5075 5.95591 14.6184 6.04938 14.6601 6.17767C14.7018 6.30595 14.6671 6.4468 14.5705 6.54098L12.0742 8.97334C11.74 9.29922 11.5874 9.76871 11.666 10.229L12.2553 13.6656C12.2789 13.799 12.2243 13.9343 12.1147 14.0139C12.0051 14.0936 11.8597 14.1037 11.7402 14.04L8.65453 12.4166C8.24181 12.1998 7.74894 12.1998 7.33623 12.4166L4.25128 14.04C4.13176 14.1033 3.98666 14.093 3.8773 14.0134C3.76794 13.9338 3.71341 13.7988 3.73678 13.6656L4.32544 10.2296C4.40438 9.76916 4.25169 9.2993 3.91719 8.97334L1.4209 6.54165C1.32355 6.44757 1.28831 6.3062 1.33008 6.17739C1.37185 6.04858 1.48334 5.95485 1.61734 5.9359L5.06845 5.4311C5.52997 5.36392 5.92895 5.07393 6.13552 4.65553L7.67833 1.52715Z" fill="#ED6C02" stroke="#ED6C02" stroke-width="2" stroke-linecap="round" stroke-linejoin="round"/>
</g>
<defs>
<clipPath id="clip0_2_780">
<rect width="16" height="16" fill="white"/>
</clipPath>
</defs>
</svg>
