<svg width="16" height="16" viewBox="0 0 16 16" fill="none" xmlns="http://www.w3.org/2000/svg">
<path d="M13.3302 6.71621C13.3302 10.0778 9.63634 13.5788 8.39595 14.6601C8.15857 14.8403 7.83175 14.8403 7.59436 14.6601C6.35398 13.5788 2.66016 10.0778 2.66016 6.71621C2.66016 3.74153 5.04872 1.33008 7.99516 1.33008C10.9416 1.33008 13.3302 3.74153 13.3302 6.71621Z" stroke="#1A3026" stroke-opacity="0.7" stroke-width="2" stroke-linecap="round" stroke-linejoin="round"/>
<path d="M6 6.66992C6 5.56535 6.89543 4.66992 8 4.66992C9.10457 4.66992 10 5.56535 10 6.66992C10 7.77449 9.10457 8.66992 8 8.66992C6.89543 8.66992 6 7.77449 6 6.66992Z" stroke="#1A3026" stroke-opacity="0.7" stroke-width="2" stroke-linecap="round" stroke-linejoin="round"/>
</svg>
