<svg width="32" height="32" viewBox="0 0 32 32" fill="none" xmlns="http://www.w3.org/2000/svg">
<path d="M13.3301 16H18.6601" stroke="#1A3026" stroke-width="2" stroke-linecap="round" stroke-linejoin="round"/>
<path d="M13.3301 10.67H18.6601" stroke="#1A3026" stroke-width="2" stroke-linecap="round" stroke-linejoin="round"/>
<path d="M18.6601 28V23.998C18.6601 22.5245 17.4669 21.33 15.9951 21.33C14.5232 21.33 13.3301 22.5245 13.3301 23.998V28" stroke="#1A3026" stroke-width="2" stroke-linecap="round" stroke-linejoin="round"/>
<path d="M8.00392 13.3307H5.33692C3.86398 13.3307 2.66992 14.5248 2.66992 15.9978V25.3328C2.66992 26.8059 3.86398 28 5.33692 28H26.6729C28.1459 28 29.3399 26.8059 29.3399 25.3328V11.9971C29.3399 10.5241 28.1459 9.32999 26.6729 9.32999H24.0059" stroke="#1A3026" stroke-width="2" stroke-linecap="round" stroke-linejoin="round"/>
<path d="M8 28V6.66667C8 5.19391 9.19391 4 10.6667 4H21.3333C22.8061 4 24 5.19391 24 6.66667V28" stroke="#1A3026" stroke-width="2" stroke-linecap="round" stroke-linejoin="round"/>
</svg>
