<svg width="20" height="20" viewBox="0 0 20 20" fill="none" xmlns="http://www.w3.org/2000/svg">
<path d="M16.6601 10.755C16.6601 14.9924 13.7441 17.1111 10.2783 18.34C10.0969 18.4025 9.89972 18.3995 9.72015 18.3315C6.24602 17.1111 3.33008 14.9924 3.33008 10.755V4.82262C3.33008 4.35457 3.70308 3.97514 4.1632 3.97514C5.82945 3.97514 7.91227 2.95816 9.3619 1.66998C9.72654 1.35308 10.2636 1.35308 10.6283 1.66998C12.0862 2.96663 14.1607 3.97514 15.827 3.97514C16.2871 3.97514 16.6601 4.35457 16.6601 4.82262V10.755Z" stroke="#0288D1" stroke-width="2" stroke-linecap="round" stroke-linejoin="round"/>
<path d="M7.5 9.99502L9.16667 11.66L12.5 8.33002" stroke="#0288D1" stroke-width="2" stroke-linecap="round" stroke-linejoin="round"/>
</svg>
