<svg width="16" height="16" viewBox="0 0 16 16" fill="none" xmlns="http://www.w3.org/2000/svg">
<path d="M13.3399 6.71612C13.3399 10.0777 9.6461 13.5787 8.40571 14.66C8.16833 14.8402 7.84151 14.8402 7.60413 14.66C6.36374 13.5787 2.66992 10.0777 2.66992 6.71612C2.66992 3.74144 5.05848 1.32999 8.00492 1.32999C10.9514 1.32999 13.3399 3.74144 13.3399 6.71612Z" stroke="#1A3026" stroke-opacity="0.6" stroke-width="2" stroke-linecap="round" stroke-linejoin="round"/>
<path d="M6 6.67001C6 5.56544 6.89543 4.67001 8 4.67001C9.10457 4.67001 10 5.56544 10 6.67001C10 7.77458 9.10457 8.67001 8 8.67001C6.89543 8.67001 6 7.77458 6 6.67001Z" stroke="#1A3026" stroke-opacity="0.6" stroke-width="2" stroke-linecap="round" stroke-linejoin="round"/>
</svg>
