<svg width="20" height="20" viewBox="0 0 20 20" fill="none" xmlns="http://www.w3.org/2000/svg">
<path d="M8.56006 17.5C8.85813 18.0136 9.40896 18.33 10.0051 18.33C10.6012 18.33 11.152 18.0136 11.4501 17.5" stroke="#1A3026" stroke-opacity="0.7" stroke-width="2" stroke-linecap="round" stroke-linejoin="round"/>
<path d="M2.64832 12.7749C2.42376 13.0187 2.3656 13.3708 2.5 13.6728C2.6344 13.9747 2.93604 14.1697 3.26921 14.1699H16.7303C17.0634 14.17 17.3652 13.9755 17.5 13.6737C17.6348 13.3719 17.5771 13.0198 17.3529 12.7758C16.2339 11.6333 15.0477 10.4191 15.0477 6.66992C15.0477 3.9085 12.7876 1.66992 9.99975 1.66992C7.21187 1.66992 4.95185 3.9085 4.95185 6.66992C4.95185 10.4191 3.76475 11.6333 2.64832 12.7749Z" stroke="#1A3026" stroke-opacity="0.7" stroke-width="2" stroke-linecap="round" stroke-linejoin="round"/>
</svg>
